<?xml version="1.0" standalone="no"?>
<!DOCTYPE svg PUBLIC "-//W3C//DTD SVG 20010904//EN"
 "http://www.w3.org/TR/2001/REC-SVG-20010904/DTD/svg10.dtd">
<svg version="1.0" xmlns="http://www.w3.org/2000/svg"
 width="459.000000pt" height="118.000000pt" viewBox="0 0 459.000000 118.000000"
 preserveAspectRatio="xMidYMid meet">

<g transform="translate(0.000000,118.000000) scale(0.100000,-0.100000)"
fill="#ffffff" stroke="none">
<path d="M60 985 l0 -105 175 0 175 0 0 -405 0 -405 120 0 120 0 0 405 0 405
175 0 175 0 0 105 0 105 -470 0 -470 0 0 -105z"/>
<path d="M1299 1076 c-57 -20 -97 -53 -126 -104 l-28 -47 0 -346 0 -346 30
-49 c19 -30 49 -60 79 -79 l49 -30 302 0 302 0 49 30 c30 19 60 49 79 79 l30
49 0 347 0 347 -30 49 c-19 30 -49 60 -79 79 l-49 30 -286 2 c-217 2 -295 0
-322 -11z m519 -208 c17 -17 17 -559 0 -576 -17 -17 -409 -17 -426 0 -17 17
-17 559 0 576 17 17 409 17 426 0z"/>
<path d="M2352 662 l3 -429 30 -49 c19 -30 49 -60 79 -79 l49 -30 301 0 301 0
47 28 c26 15 56 40 68 56 48 69 50 87 50 522 l0 409 -120 0 -120 0 0 -393 c0
-292 -3 -396 -12 -405 -17 -17 -409 -17 -426 0 -9 9 -12 113 -12 405 l0 393
-120 0 -121 0 3 -428z"/>
<path d="M3560 580 l0 -510 120 0 120 0 0 170 0 170 90 0 90 0 126 -170 126
-170 134 0 c74 0 134 3 133 8 0 4 -58 79 -128 167 l-129 160 47 11 c96 22 150
71 177 160 17 57 19 280 3 339 -16 59 -57 113 -108 143 l-46 27 -377 3 -378 3
0 -511z m658 284 c20 -14 22 -23 22 -118 0 -66 -4 -106 -12 -114 -9 -9 -72
-12 -220 -12 l-208 0 0 130 0 130 198 0 c163 0 201 -3 220 -16z"/>
</g>
</svg>
