<?xml version="1.0" standalone="no"?>
<!DOCTYPE svg PUBLIC "-//W3C//DTD SVG 20010904//EN"
 "http://www.w3.org/TR/2001/REC-SVG-20010904/DTD/svg10.dtd">
<svg version="1.0" xmlns="http://www.w3.org/2000/svg"
 width="600.000000pt" height="400.000000pt" viewBox="0 0 600.000000 400.000000"
 preserveAspectRatio="xMidYMid meet">

<g transform="translate(0.000000,400.000000) scale(0.100000,-0.100000)"
fill="#ffffff" stroke="none">
<path d="M1510 2865 l0 -245 1410 0 1410 0 0 245 0 245 -1410 0 -1410 0 0
-245z"/>
<path d="M1510 2005 l0 -245 1410 0 1410 0 0 245 0 245 -1410 0 -1410 0 0
-245z"/>
<path d="M1510 1115 l0 -245 1410 0 1410 0 0 245 0 245 -1410 0 -1410 0 0
-245z"/>
</g>
</svg>
