<?xml version="1.0" standalone="no"?>
<!DOCTYPE svg PUBLIC "-//W3C//DTD SVG 20010904//EN"
 "http://www.w3.org/TR/2001/REC-SVG-20010904/DTD/svg10.dtd">
<svg version="1.0" xmlns="http://www.w3.org/2000/svg"
 width="537.000000pt" height="109.000000pt" viewBox="0 0 537.000000 109.000000"
 preserveAspectRatio="xMidYMid meet">

<g transform="translate(0.000000,109.000000) scale(0.100000,-0.100000)"
fill="#ffffff" stroke="none">
<path d="M70 1013 c1 -33 37 -99 69 -126 47 -39 90 -47 259 -47 l152 0 0 -380
0 -380 95 0 95 0 0 380 0 380 158 0 c131 0 164 3 197 19 48 22 79 54 100 103
30 74 78 68 -555 68 -536 0 -570 -1 -570 -17z"/>
<path d="M1390 1015 c0 -25 29 -88 53 -114 12 -13 40 -32 62 -42 37 -17 73
-19 445 -19 248 0 419 4 442 10 50 14 97 55 119 105 38 82 90 75 -551 75 -505
0 -570 -2 -570 -15z"/>
<path d="M2720 745 l0 -285 95 0 95 0 0 285 0 285 -95 0 -95 0 0 -285z"/>
<path d="M3670 745 l0 -285 95 0 95 0 0 285 0 285 -95 0 -95 0 0 -285z"/>
<path d="M4060 1015 c0 -25 29 -88 53 -114 12 -13 40 -32 62 -42 37 -17 72
-19 438 -19 l397 0 0 -66 c0 -59 -3 -68 -29 -95 l-29 -29 -446 0 -446 0 0
-285 0 -285 95 0 95 0 0 190 0 190 143 0 142 0 190 -190 190 -190 140 0 140 0
-190 190 -190 190 105 0 c122 0 167 10 211 47 62 52 69 84 69 316 l0 207 -570
0 c-505 0 -570 -2 -570 -15z"/>
<path d="M1390 365 l0 -285 570 0 570 0 0 285 0 285 -95 0 -95 0 0 -190 0
-190 -380 0 -380 0 0 190 0 190 -95 0 -95 0 0 -285z"/>
<path d="M2720 255 c0 -25 29 -88 53 -114 12 -13 40 -32 62 -42 37 -17 73 -19
445 -19 248 0 419 4 442 10 50 14 97 55 119 105 38 82 90 75 -551 75 -505 0
-570 -2 -570 -15z"/>
</g>
</svg>
